<svg xmlns="http://www.w3.org/2000/svg" xmlns:xlink="http://www.w3.org/1999/xlink" width="1024" zoomAndPan="magnify" viewBox="0 0 768 767.999994" height="1024" preserveAspectRatio="xMidYMid meet" version="1.0"><defs><clipPath id="e58268d36b"><path d="M 0 19 L 768 19 L 768 716 L 0 716 Z M 0 19 " clip-rule="nonzero"/></clipPath><clipPath id="05c5d04aec"><path d="M 404.539062 1440.746094 L -843.859375 192.351562 L 363.171875 -1014.679688 L 1611.570312 233.714844 Z M 404.539062 1440.746094 " clip-rule="nonzero"/></clipPath><clipPath id="e0acfa0b24"><path d="M 404.539062 1440.746094 L -843.859375 192.351562 L 363.171875 -1014.679688 L 1611.570312 233.714844 Z M 404.539062 1440.746094 " clip-rule="nonzero"/></clipPath></defs><g clip-path="url(#e58268d36b)"><g clip-path="url(#05c5d04aec)"><g clip-path="url(#e0acfa0b24)"><path fill="#ff9f1c" d="M -725.96875 252.648438 C -600.523438 230.757812 -473.988281 216.070312 -347.542969 201.339844 C -180.605469 177.765625 -12.765625 183.007812 153.777344 205.152344 C 268.511719 221.300781 380.929688 250.394531 477.382812 316.082031 C 486.152344 324.664062 496.136719 332.15625 503.6875 341.824219 C 532.679688 378.957031 524.472656 441.097656 510.484375 481.800781 C 482.71875 540.417969 430.136719 568.738281 371.3125 588.4375 C 325.390625 601.960938 278.664062 601.589844 233.566406 585.835938 C 232.613281 585.132812 220.0625 577.644531 221.160156 572.996094 C 221.613281 571.066406 226.046875 572.851562 226.753906 571 C 231.277344 559.160156 227.820312 545.585938 230.117188 533.121094 C 231.859375 523.65625 234.648438 514.414062 236.914062 505.058594 C 266.128906 415.464844 336.519531 355.925781 407.371094 298.894531 C 503.492188 221.105469 622.484375 188.660156 741.261719 164.152344 C 827.835938 147.652344 916.015625 131.878906 1004.550781 139.1875 C 1066.210938 144.273438 1102.566406 154.183594 1163.792969 167.203125 C 1277.164062 196.738281 1385.085938 242.273438 1490.625 292.351562 C 1532.921875 312.367188 1583.464844 205.550781 1541.167969 185.535156 C 1427.171875 131.742188 1310.703125 82.640625 1188.128906 51.566406 C 1116.199219 36.566406 1079.6875 26.390625 1006.835938 21.035156 C 909.390625 13.878906 812.421875 30.003906 717.144531 48.464844 C 580.023438 77.308594 443.855469 116.824219 333.140625 206.945312 C 239.402344 282.824219 156.875 359.921875 121.546875 479.480469 C 102.414062 571.175781 99.242188 654.328125 197.652344 698.421875 C 267.980469 719.71875 339.304688 722.734375 410.140625 700.046875 C 509.40625 664.601562 582.40625 615.003906 624.152344 514.113281 C 628.628906 496.519531 634.828125 479.28125 637.582031 461.339844 C 652.53125 363.972656 619.574219 278.617188 542.882812 217.722656 C 526.808594 207.195312 511.34375 195.675781 494.660156 186.148438 C 395.277344 129.382812 280.8125 106.273438 169.246094 87.996094 C -6.988281 64.890625 -184.589844 59.128906 -361.222656 83.964844 C -493.511719 99.382812 -626.039062 114.347656 -757.0625 138.640625 C -802.207031 150.953125 -771.113281 264.960938 -725.96875 252.648438 Z M -725.96875 252.648438 " fill-opacity="1" fill-rule="nonzero"/></g></g></g></svg>