<svg xmlns="http://www.w3.org/2000/svg" xmlns:xlink="http://www.w3.org/1999/xlink" width="500" zoomAndPan="magnify" viewBox="0 0 375 104.999996" height="140" preserveAspectRatio="xMidYMid meet" version="1.0"><defs><clipPath id="0461654252"><path d="M 21 4 L 347 4 L 347 101 L 21 101 Z M 21 4 " clip-rule="nonzero"/></clipPath><clipPath id="26c69b5919"><path d="M 186.269531 201.792969 L 12.949219 28.472656 L 180.632812 -139.214844 L 353.957031 34.105469 Z M 186.269531 201.792969 " clip-rule="nonzero"/></clipPath><clipPath id="edcfbe95d6"><path d="M 186.269531 201.792969 L 12.949219 28.472656 L 180.632812 -139.214844 L 353.957031 34.105469 Z M 186.269531 201.792969 " clip-rule="nonzero"/></clipPath></defs><g clip-path="url(#0461654252)"><g clip-path="url(#26c69b5919)"><g clip-path="url(#edcfbe95d6)"><path fill="#e71e36" d="M 29.183594 36.625 C 46.617188 33.582031 64.203125 31.542969 81.777344 29.496094 C 104.980469 26.21875 128.308594 26.945312 151.457031 30.023438 C 167.402344 32.269531 183.027344 36.3125 196.433594 45.441406 C 197.652344 46.632812 199.039062 47.675781 200.089844 49.019531 C 204.117188 54.179688 202.976562 62.816406 201.03125 68.476562 C 197.175781 76.621094 189.867188 80.558594 181.691406 83.296875 C 175.308594 85.175781 168.8125 85.125 162.542969 82.933594 C 162.414062 82.835938 160.667969 81.796875 160.820312 81.148438 C 160.882812 80.882812 161.5 81.128906 161.597656 80.871094 C 162.226562 79.226562 161.746094 77.339844 162.066406 75.605469 C 162.308594 74.292969 162.695312 73.007812 163.011719 71.707031 C 167.070312 59.253906 176.855469 50.980469 186.703125 43.054688 C 200.0625 32.242188 216.597656 27.730469 233.109375 24.324219 C 245.140625 22.03125 257.394531 19.839844 269.703125 20.855469 C 278.269531 21.5625 283.324219 22.941406 291.832031 24.75 C 307.589844 28.855469 322.589844 35.183594 337.257812 42.144531 C 343.136719 44.925781 350.164062 30.078125 344.285156 27.296875 C 328.441406 19.820312 312.253906 12.996094 295.214844 8.675781 C 285.21875 6.59375 280.144531 5.179688 270.019531 4.433594 C 256.476562 3.4375 242.996094 5.679688 229.753906 8.246094 C 210.699219 12.253906 191.773438 17.746094 176.382812 30.273438 C 163.355469 40.820312 151.886719 51.535156 146.976562 68.152344 C 144.316406 80.894531 143.875 92.453125 157.554688 98.582031 C 167.328125 101.542969 177.242188 101.960938 187.085938 98.808594 C 200.882812 93.882812 211.027344 86.988281 216.832031 72.964844 C 217.453125 70.519531 218.316406 68.125 218.699219 65.628906 C 220.773438 52.097656 216.195312 40.234375 205.535156 31.769531 C 203.300781 30.308594 201.152344 28.707031 198.832031 27.382812 C 185.019531 19.492188 169.113281 16.28125 153.605469 13.742188 C 129.109375 10.53125 104.425781 9.726562 79.878906 13.179688 C 61.492188 15.324219 43.070312 17.402344 24.859375 20.78125 C 18.585938 22.492188 22.90625 38.335938 29.183594 36.625 Z M 29.183594 36.625 " fill-opacity="1" fill-rule="nonzero"/></g></g></g></svg>